PathFileType	4	(X/Y/Z)	Walk7.trc
DataRate	CameraRate	NumFrames	NumMarkers	Units	OrigDataRate	OrigDataStartFrame	OrigNumFrames
200.000000	200.000000	6	59	mm	200.000000	306	533
Frame#	Times		LBHD		C7		T10		RBack		LPSI		RPSI		RCAR		LElbowM		LLFC		LFHD		LUA1		RElbowM		RUA1		RWRR		CLAV		LCAR		RFA1		LFA1		LWRU		RTH2		RTH3		RTB1		LACR1		RACR1		LWRR		RTB3		RToe		RMT1		RLFC		RTH4		RCAL		RMT5		RTB4		LTB3		RWRU		LTH1		RFHD		RBHD		RTB2		RTH1		LTH4		LTH3		LElbow		STRN		RMMAL		RElbow		LTH2		RASI		LTB2		RLMAL		LASI		LCAL		LMT1		LLMAL		LMT5		LMMAL		LToe		LTB1		LTB4
			X1	Y1	Z1	X2	Y2	Z2	X3	Y3	Z3	X4	Y4	Z4	X5	Y5	Z5	X6	Y6	Z6	X7	Y7	Z7	X8	Y8	Z8	X9	Y9	Z9	X10	Y10	Z10	X11	Y11	Z11	X12	Y12	Z12	X13	Y13	Z13	X14	Y14	Z14	X15	Y15	Z15	X16	Y16	Z16	X17	Y17	Z17	X18	Y18	Z18	X19	Y19	Z19	X20	Y20	Z20	X21	Y21	Z21	X22	Y22	Z22	X23	Y23	Z23	X24	Y24	Z24	X25	Y25	Z25	X26	Y26	Z26	X27	Y27	Z27	X28	Y28	Z28	X29	Y29	Z29	X30	Y30	Z30	X31	Y31	Z31	X32	Y32	Z32	X33	Y33	Z33	X34	Y34	Z34	X35	Y35	Z35	X36	Y36	Z36	X37	Y37	Z37	X38	Y38	Z38	X39	Y39	Z39	X40	Y40	Z40	X41	Y41	Z41	X42	Y42	Z42	X43	Y43	Z43	X44	Y44	Z44	X45	Y45	Z45	X46	Y46	Z46	X47	Y47	Z47	X48	Y48	Z48	X49	Y49	Z49	X50	Y50	Z50	X51	Y51	Z51	X52	Y52	Z52	X53	Y53	Z53	X54	Y54	Z54	X55	Y55	Z55	X56	Y56	Z56	X57	Y57	Z57	X58	Y58	Z58	X59	Y59	Z59

306	1.53	-366.88	1488.8	-99.011	-391.75	1354.2	-34.194	-417.24	1087.2	-33.814	-426.01	1255.1	92.471	-441.65	903.57	-55.566	-444.14	900.47	43.822	-261.07	753.51	301.16	-337.88	960.6	-231.59	-346.41	451.25	-135.57	-196.91	1501.3	-64.798	-279.05	1116.2	-272.81	-385.58	959.45	170.94	-332.73	1143.6	210.79	-234.65	790.76	254.76	-265.57	1278.2	-18.345	-148.67	737.84	-316.87	-341.91	876.82	266.55	-257.63	880.57	-315.61	-206.37	766.87	-325.05	-167.02	680.9	147.88	-201.55	561.19	152.42	-114.66	351.21	62.314	-296.99	1290	-190.51	-330.81	1296.3	125.69	-160.19	776.34	-267.85	-113.33	166.74	62.298	6.8839	64.951	83.71	-45.114	76.852	61.624	-153.74	474.03	140.09	-232.83	649.41	174.8	-201.81	48.581	68.23	-70.741	56.803	108.51	-121.24	259.8	63.967	-368.88	158.43	-36.57	-306.04	770.81	262	-281.31	737.55	-196.58	-197.2	1509.7	12.179	-377.49	1495	23.817	-151.87	258.43	129.52	-260.14	731.93	198.34	-289.31	647.72	-168.56	-303.04	556.58	-144.16	-304.76	997.06	-293.57	-202.04	1173.6	-15.8	-136.92	89.815	23.834	-356.36	1002.6	251.24	-231.82	656.26	-124.35	-226.11	877.2	138.87	-380.35	248.64	-113.26	-149.24	79.927	103.12	-248.67	846.26	-161.65	-477.88	34.705	-37.027	-322.14	47.741	-29.795	-429.92	66.28	-77.799	-347.27	34.164	-86.534	-412.12	70.265	1.1962	-265.25	24.9	-42.422	-331.95	336.77	-52.259	-357.92	248.59	-46.402
307	1.535	-361.29	1487.9	-98.527	-386.12	1353.3	-33.754	-411.77	1086.3	-33.617	-420.45	1254	92.728	-436.39	902.93	-55.13	-438.42	899.47	44.158	-258.08	752	301.63	-331.62	959.69	-231.64	-343.02	450.64	-135.56	-191.31	1500.4	-64.374	-272.8	1115.5	-272.53	-381.15	958.42	170.86	-327.78	1142.4	211	-231.18	789.18	255.41	-259.97	1277.2	-18.045	-141.2	737.6	-315.98	-338.23	875.6	266.61	-250.7	879.91	-315.24	-198.96	766.43	-324.42	-161.1	679.79	147.08	-195.8	560.08	151.95	-106.27	351.43	61.499	-291.43	1289.2	-190.21	-325.18	1295.1	126.06	-153.02	776.14	-267.07	-99.153	167.08	61.826	24.48	68.054	81.72	-28.138	78.677	60.259	-148.14	472.94	139.39	-226.74	648.38	174.46	-184	46.413	68.697	-52.738	58.156	107.47	-109.99	259.88	63.345	-367.85	158	-36.338	-302.7	769.42	262.01	-276.61	736.64	-196.72	-191.57	1508.8	12.609	-371.87	1494.1	24.31	-140.21	257.76	129.04	-253.78	730.94	198.17	-285	646.84	-168.66	-299.14	555.76	-144.17	-298.33	996.27	-293.46	-196.5	1172.5	-15.712	-120.73	89.287	23.524	-352.1	1001.5	251.28	-227.49	655.15	-124.48	-220.13	876.05	138.7	-378.44	248.24	-113.13	-131.94	79.235	102.9	-237.44	845.63	-162.17	-477.82	34.915	-36.877	-322.04	47.625	-29.62	-429.61	66.329	-77.622	-347.22	34.139	-86.387	-411.9	70.174	1.3968	-265.05	24.891	-42.526	-329.38	336	-52.107	-356.18	248.04	-46.22
308	1.54	-355.71	1486.9	-98.029	-380.5	1352.3	-33.3	-406.27	1085.4	-33.391	-414.87	1253	93.006	-431.12	902.27	-54.676	-432.65	898.42	44.515	-255.02	750.49	302.07	-325.34	958.75	-231.66	-339.61	450.02	-135.56	-185.72	1499.5	-63.942	-266.56	1114.7	-272.23	-376.71	957.39	170.82	-322.82	1141.1	211.22	-227.67	787.61	256.02	-254.38	1276.2	-17.735	-133.74	737.33	-315.07	-334.49	874.39	266.69	-243.77	879.22	-314.86	-191.57	765.97	-323.78	-155.23	678.59	146.33	-190.17	558.89	151.54	-98.053	351.65	60.664	-285.86	1288.4	-189.9	-319.53	1293.9	126.45	-145.87	775.89	-266.28	-85.252	167.58	61.301	41.714	71.312	79.546	-11.507	80.676	58.77	-142.63	471.79	138.74	-220.72	647.29	174.17	-166.44	44.558	69.179	-35.035	59.741	106.32	-98.948	260.05	62.708	-366.79	157.56	-36.12	-299.31	768.02	262.01	-271.9	735.71	-196.86	-185.95	1507.8	13.047	-366.26	1493.1	24.817	-128.67	257.22	128.57	-247.42	729.91	198.03	-280.69	645.94	-168.76	-295.22	554.93	-144.18	-291.88	995.45	-293.32	-190.94	1171.5	-15.615	-104.85	88.985	23.193	-347.78	1000.4	251.36	-223.13	654.03	-124.63	-214.01	874.86	138.52	-376.52	247.85	-112.99	-114.89	78.822	102.63	-226.39	845.02	-162.67	-477.75	35.148	-36.724	-321.94	47.517	-29.452	-429.31	66.393	-77.45	-347.17	34.114	-86.238	-411.68	70.095	1.5896	-264.86	24.881	-42.622	-326.78	335.22	-51.969	-354.41	247.49	-46.042
309	1.545	-350.14	1485.8	-97.516	-374.89	1351.4	-32.831	-400.76	1084.5	-33.136	-409.29	1251.9	93.305	-425.83	901.6	-54.206	-426.85	897.36	44.893	-251.89	748.97	302.48	-319.04	957.77	-231.65	-336.19	449.39	-135.56	-180.14	1498.5	-63.503	-260.31	1113.8	-271.91	-372.27	956.35	170.81	-317.82	1139.9	211.47	-224.11	786.03	256.59	-248.77	1275.2	-17.414	-126.3	737.02	-314.15	-330.68	873.17	266.78	-236.83	878.51	-314.45	-184.19	765.47	-323.13	-149.42	677.3	145.63	-184.62	557.64	151.19	-90.005	351.86	59.8	-280.29	1287.6	-189.58	-313.86	1292.7	126.85	-138.73	775.61	-265.48	-71.651	168.23	60.718	58.547	74.692	77.197	4.741	82.821	57.165	-137.18	470.59	138.15	-214.77	646.14	173.93	-149.18	43.003	69.671	-17.674	61.531	105.07	-88.136	260.29	62.052	-365.73	157.13	-35.916	-295.86	766.63	262.01	-267.2	734.77	-197.01	-180.34	1506.9	13.491	-360.65	1492.1	25.341	-117.24	256.81	128.1	-241.07	728.84	197.91	-276.37	645.04	-168.86	-291.3	554.09	-144.19	-285.42	994.61	-293.16	-185.38	1170.4	-15.509	-89.329	88.892	22.842	-343.4	999.19	251.45	-218.74	652.9	-124.79	-207.77	873.62	138.33	-374.59	247.46	-112.87	-98.105	78.67	102.32	-215.51	844.43	-163.16	-477.69	35.406	-36.57	-321.85	47.417	-29.291	-429.01	66.473	-77.284	-347.13	34.092	-86.087	-411.45	70.031	1.7748	-264.67	24.87	-42.711	-324.13	334.41	-51.846	-352.63	246.95	-45.87
310	1.55	-344.59	1484.8	-96.987	-369.27	1350.4	-32.349	-395.22	1083.5	-32.855	-403.69	1250.9	93.625	-420.51	900.9	-53.721	-421.01	896.26	45.294	-248.68	747.44	302.85	-312.73	956.77	-231.62	-332.74	448.76	-135.56	-174.57	1497.5	-63.058	-254.06	1113	-271.57	-367.82	955.31	170.84	-312.8	1138.6	211.72	-220.5	784.44	257.11	-243.17	1274.1	-17.081	-118.88	736.67	-313.23	-326.82	871.95	266.89	-229.9	877.78	-314.03	-176.82	764.95	-322.45	-143.66	675.93	144.98	-179.17	556.31	150.91	-82.126	352.07	58.901	-274.71	1286.7	-189.23	-308.18	1291.5	127.26	-131.59	775.29	-264.66	-58.375	169.01	60.073	74.938	78.159	74.688	20.566	85.085	55.456	-131.77	469.37	137.62	-208.9	644.94	173.74	-132.27	41.728	70.172	-0.70039	63.497	103.72	-77.558	260.6	61.37	-364.65	156.69	-35.727	-292.35	765.24	262.02	-262.5	733.82	-197.17	-174.73	1505.9	13.941	-355.05	1491	25.881	-105.94	256.52	127.64	-234.75	727.73	197.82	-272.04	644.13	-168.96	-287.36	553.24	-144.2	-278.95	993.74	-292.98	-179.8	1169.4	-15.392	-74.193	88.985	22.477	-338.94	998.03	251.58	-214.33	651.76	-124.95	-201.44	872.36	138.13	-372.67	247.07	-112.74	-81.646	78.758	101.96	-204.84	843.86	-163.63	-477.63	35.695	-36.414	-321.76	47.326	-29.139	-428.71	66.572	-77.123	-347.09	34.071	-85.936	-411.21	69.987	1.9541	-264.5	24.857	-42.791	-321.46	333.6	-51.737	-350.84	246.4	-45.701
311	1.555	-339.04	1483.7	-96.441	-363.67	1349.4	-31.852	-389.65	1082.5	-32.549	-398.09	1249.8	93.966	-415.17	900.18	-53.223	-415.14	895.15	45.717	-245.38	745.91	303.2	-306.4	955.75	-231.56	-329.29	448.12	-135.56	-169.01	1496.6	-62.605	-247.83	1112.1	-271.2	-363.35	954.27	170.91	-307.75	1137.4	212	-216.83	782.86	257.6	-237.56	1273.1	-16.735	-111.48	736.3	-312.29	-322.88	870.73	267.02	-222.98	877.03	-313.58	-169.48	764.4	-321.77	-137.96	674.48	144.36	-173.8	554.93	150.68	-74.411	352.26	57.961	-269.14	1285.9	-188.87	-302.49	1290.3	127.69	-124.48	774.95	-263.83	-45.452	169.88	59.365	90.845	81.675	72.038	35.929	87.431	53.657	-126.37	468.13	137.13	-203.09	643.69	173.6	-115.77	40.709	70.676	15.841	65.602	102.28	-67.227	260.95	60.657	-363.56	156.27	-35.552	-288.78	763.86	262.04	-257.79	732.85	-197.32	-169.13	1504.9	14.398	-349.45	1490	26.438	-94.758	256.37	127.17	-228.46	726.58	197.74	-267.71	643.21	-169.05	-283.4	552.39	-144.22	-272.46	992.85	-292.77	-174.21	1168.3	-15.263	-59.483	89.237	22.099	-334.42	996.87	251.73	-209.9	650.6	-125.13	-195.04	871.06	137.9	-370.74	246.68	-112.62	-65.557	79.06	101.57	-194.37	843.32	-164.09	-477.56	36.018	-36.257	-321.67	47.246	-28.994	-428.42	66.695	-76.968	-347.06	34.054	-85.784	-410.96	69.967	2.1298	-264.34	24.844	-42.864	-318.77	332.77	-51.643	-349.03	245.87	-45.535
